<svg xmlns="http://www.w3.org/2000/svg" width="75" viewBox="0 0 75 75" height="75" version="1.0"><defs><clipPath id="a"><path d="M 20 59 L 55 59 L 55 67.5 L 20 67.5 Z M 20 59"/></clipPath><clipPath id="b"><path d="M 7.5 7.5 L 67.5 7.5 L 67.5 53 L 7.5 53 Z M 7.5 7.5"/></clipPath><clipPath id="c"><path d="M 7.5 42 L 67.5 42 L 67.5 53 L 7.5 53 Z M 7.5 42"/></clipPath></defs><path fill="#3089FC" d="M 16.882812 19.332031 L 11.792969 15.535156 L 16.882812 11.742188 L 18.082031 13.339844 L 15.1875 15.535156 L 18.082031 17.734375 Z M 16.882812 19.332031"/><path fill="#3089FC" d="M 24.074219 19.332031 L 22.875 17.734375 L 25.769531 15.535156 L 22.875 13.339844 L 24.074219 11.742188 L 29.164062 15.535156 Z M 24.074219 19.332031"/><path fill="#3089FC" d="M 19.480469 11.542969 L 21.476562 11.542969 L 21.476562 19.53125 L 19.480469 19.53125 Z M 19.480469 11.542969"/><path fill="#3089FC" d="M 50.828125 41.292969 L 45.734375 37.5 L 50.828125 33.707031 L 52.027344 35.304688 L 49.128906 37.5 L 52.027344 39.695312 Z M 50.828125 41.292969"/><path fill="#3089FC" d="M 58.015625 41.292969 L 56.816406 39.695312 L 59.714844 37.5 L 56.816406 35.304688 L 58.015625 33.707031 L 63.105469 37.5 Z M 58.015625 41.292969"/><path fill="#3089FC" d="M 53.421875 33.507812 L 55.421875 33.507812 L 55.421875 41.492188 L 53.421875 41.492188 Z M 53.421875 33.507812"/><path fill="#3089FC" d="M 35.453125 19.53125 L 46.433594 19.53125 L 46.433594 21.527344 L 35.453125 21.527344 Z M 35.453125 19.53125"/><path fill="#3089FC" d="M 28.464844 23.523438 L 46.433594 23.523438 L 46.433594 25.519531 L 28.464844 25.519531 Z M 28.464844 23.523438"/><path fill="#3089FC" d="M 28.464844 27.515625 L 46.433594 27.515625 L 46.433594 29.511719 L 28.464844 29.511719 Z M 28.464844 27.515625"/><path fill="#3089FC" d="M 28.464844 31.511719 L 39.445312 31.511719 L 39.445312 33.507812 L 28.464844 33.507812 Z M 28.464844 31.511719"/><path fill="#3089FC" d="M 41.445312 31.511719 L 44.4375 31.511719 L 44.4375 33.507812 L 41.445312 33.507812 Z M 41.445312 31.511719"/><path fill="#3089FC" d="M 30.460938 19.53125 L 33.457031 19.53125 L 33.457031 21.527344 L 30.460938 21.527344 Z M 30.460938 19.53125"/><g clip-path="url(#a)"><path fill="#3089FC" d="M 54.421875 67.449219 L 20.476562 67.449219 C 20.476562 66.925781 20.53125 66.40625 20.632812 65.890625 C 20.734375 65.378906 20.886719 64.878906 21.085938 64.394531 C 21.285156 63.910156 21.53125 63.449219 21.824219 63.011719 C 22.117188 62.578125 22.445312 62.171875 22.816406 61.800781 C 23.1875 61.433594 23.59375 61.101562 24.027344 60.808594 C 24.464844 60.519531 24.925781 60.273438 25.410156 60.070312 C 25.894531 59.871094 26.394531 59.71875 26.90625 59.617188 C 27.421875 59.515625 27.941406 59.464844 28.464844 59.464844 L 46.433594 59.464844 C 46.960938 59.464844 47.480469 59.515625 47.992188 59.617188 C 48.507812 59.71875 49.007812 59.871094 49.492188 60.070312 C 49.976562 60.273438 50.4375 60.519531 50.871094 60.808594 C 51.308594 61.101562 51.710938 61.433594 52.082031 61.800781 C 52.453125 62.171875 52.785156 62.578125 53.074219 63.011719 C 53.367188 63.449219 53.613281 63.910156 53.8125 64.394531 C 54.015625 64.878906 54.167969 65.378906 54.269531 65.890625 C 54.371094 66.40625 54.421875 66.925781 54.421875 67.449219 Z M 54.421875 67.449219"/></g><g clip-path="url(#b)"><path fill="#3089FC" d="M 64.40625 52.476562 L 10.496094 52.476562 C 10.09375 52.488281 9.707031 52.421875 9.332031 52.277344 C 8.957031 52.128906 8.628906 51.914062 8.347656 51.628906 C 8.0625 51.34375 7.847656 51.015625 7.699219 50.640625 C 7.550781 50.269531 7.484375 49.882812 7.5 49.480469 L 7.5 10.546875 C 7.484375 10.144531 7.550781 9.757812 7.699219 9.382812 C 7.847656 9.007812 8.0625 8.679688 8.347656 8.394531 C 8.628906 8.113281 8.957031 7.898438 9.332031 7.75 C 9.707031 7.601562 10.09375 7.535156 10.496094 7.550781 L 64.40625 7.550781 C 64.804688 7.535156 65.195312 7.601562 65.566406 7.75 C 65.941406 7.898438 66.269531 8.113281 66.554688 8.394531 C 66.839844 8.679688 67.054688 9.007812 67.199219 9.382812 C 67.347656 9.757812 67.414062 10.144531 67.398438 10.546875 L 67.398438 49.480469 C 67.414062 49.882812 67.347656 50.269531 67.199219 50.640625 C 67.054688 51.015625 66.839844 51.34375 66.554688 51.628906 C 66.269531 51.914062 65.941406 52.128906 65.566406 52.277344 C 65.195312 52.421875 64.804688 52.488281 64.40625 52.476562 Z M 10.496094 9.546875 C 10.359375 9.53125 10.226562 9.542969 10.09375 9.589844 C 9.964844 9.636719 9.851562 9.707031 9.753906 9.804688 C 9.65625 9.902344 9.585938 10.015625 9.539062 10.144531 C 9.496094 10.273438 9.480469 10.40625 9.496094 10.546875 L 9.496094 49.480469 C 9.480469 49.617188 9.496094 49.75 9.539062 49.878906 C 9.585938 50.011719 9.65625 50.125 9.753906 50.222656 C 9.851562 50.320312 9.964844 50.390625 10.09375 50.433594 C 10.226562 50.480469 10.359375 50.496094 10.496094 50.476562 L 64.40625 50.476562 C 64.542969 50.496094 64.675781 50.480469 64.804688 50.433594 C 64.933594 50.390625 65.050781 50.320312 65.148438 50.222656 C 65.242188 50.125 65.316406 50.011719 65.359375 49.878906 C 65.40625 49.75 65.417969 49.617188 65.402344 49.480469 L 65.402344 10.546875 C 65.417969 10.40625 65.40625 10.273438 65.359375 10.144531 C 65.316406 10.015625 65.242188 9.902344 65.148438 9.804688 C 65.050781 9.707031 64.933594 9.636719 64.804688 9.589844 C 64.675781 9.542969 64.542969 9.53125 64.40625 9.546875 Z M 10.496094 9.546875"/></g><path fill="#3089FC" d="M 44.4375 63.457031 L 30.460938 63.457031 L 30.460938 50.476562 L 44.4375 50.476562 Z M 32.457031 61.460938 L 42.441406 61.460938 L 42.441406 52.476562 L 32.457031 52.476562 Z M 32.457031 61.460938"/><g clip-path="url(#c)"><path fill="#3089FC" d="M 7.5 42.492188 L 7.5 49.480469 C 7.484375 49.882812 7.550781 50.269531 7.699219 50.640625 C 7.847656 51.015625 8.0625 51.34375 8.347656 51.628906 C 8.628906 51.914062 8.957031 52.128906 9.332031 52.277344 C 9.707031 52.421875 10.09375 52.488281 10.496094 52.476562 L 64.40625 52.476562 C 64.804688 52.488281 65.195312 52.421875 65.566406 52.277344 C 65.941406 52.128906 66.269531 51.914062 66.554688 51.628906 C 66.839844 51.34375 67.054688 51.015625 67.199219 50.640625 C 67.347656 50.269531 67.414062 49.882812 67.398438 49.480469 L 67.398438 42.492188 Z M 37.449219 49.480469 C 37.183594 49.480469 36.929688 49.429688 36.6875 49.328125 C 36.441406 49.226562 36.226562 49.082031 36.039062 48.894531 C 35.851562 48.707031 35.707031 48.492188 35.605469 48.246094 C 35.503906 48.003906 35.453125 47.75 35.453125 47.484375 C 35.453125 47.21875 35.503906 46.964844 35.605469 46.71875 C 35.707031 46.476562 35.851562 46.257812 36.039062 46.070312 C 36.226562 45.882812 36.441406 45.738281 36.6875 45.640625 C 36.929688 45.539062 37.183594 45.488281 37.449219 45.488281 C 37.714844 45.488281 37.96875 45.539062 38.214844 45.640625 C 38.457031 45.738281 38.675781 45.882812 38.863281 46.070312 C 39.050781 46.257812 39.195312 46.476562 39.292969 46.71875 C 39.394531 46.964844 39.445312 47.21875 39.445312 47.484375 C 39.445312 47.75 39.394531 48.003906 39.292969 48.246094 C 39.195312 48.492188 39.050781 48.707031 38.863281 48.894531 C 38.675781 49.082031 38.457031 49.226562 38.214844 49.328125 C 37.96875 49.429688 37.714844 49.480469 37.449219 49.480469 Z M 37.449219 49.480469"/></g></svg>