<svg xmlns="http://www.w3.org/2000/svg" width="75" viewBox="0 0 75 75" height="75" version="1.0"><defs><clipPath id="a"><path d="M 7.5 12.523438 L 67.5 12.523438 L 67.5 62.773438 L 7.5 62.773438 Z M 7.5 12.523438"/></clipPath></defs><g clip-path="url(#a)"><path fill="#3089FC" d="M 9.53125 20.566406 L 9.53125 16.546875 C 9.53125 15.324219 10.316406 14.535156 11.527344 14.535156 L 63.472656 14.535156 C 64.683594 14.535156 65.46875 15.324219 65.46875 16.546875 L 65.46875 20.566406 Z M 65.46875 44.234375 C 64.285156 44.300781 63.132812 44.484375 62.023438 44.777344 L 61.246094 42.363281 L 59.347656 42.984375 L 60.125 45.398438 C 59.035156 45.828125 57.996094 46.359375 57.027344 46.988281 L 55.546875 44.9375 L 53.925781 46.113281 L 55.40625 48.167969 C 54.507812 48.910156 53.683594 49.738281 52.949219 50.640625 L 50.90625 49.152344 L 49.738281 50.78125 L 51.777344 52.269531 C 51.152344 53.246094 50.621094 54.292969 50.195312 55.386719 L 47.796875 54.605469 L 47.179688 56.515625 L 49.582031 57.296875 C 49.289062 58.414062 49.105469 59.574219 49.039062 60.765625 L 11.527344 60.765625 C 10.316406 60.765625 9.53125 59.976562 9.53125 58.753906 L 9.53125 22.574219 L 65.46875 22.574219 Z M 63.472656 60.765625 L 55.53125 60.765625 C 56.007812 55.46875 60.207031 51.246094 65.46875 50.765625 L 65.46875 58.753906 C 65.46875 59.976562 64.683594 60.765625 63.472656 60.765625 Z M 65.46875 46.242188 L 65.46875 48.757812 C 59.105469 49.246094 54.019531 54.363281 53.535156 60.765625 L 51.035156 60.765625 C 51.53125 52.980469 57.730469 46.742188 65.46875 46.242188 Z M 63.472656 12.523438 L 11.527344 12.523438 C 9.214844 12.523438 7.53125 14.21875 7.53125 16.546875 L 7.53125 58.753906 C 7.53125 61.082031 9.214844 62.773438 11.527344 62.773438 L 63.472656 62.773438 C 65.785156 62.773438 67.46875 61.082031 67.46875 58.753906 L 67.46875 16.546875 C 67.46875 14.21875 65.785156 12.523438 63.472656 12.523438"/></g><path fill="#3089FC" d="M 61.472656 18.554688 L 63.472656 18.554688 L 63.472656 16.546875 L 61.472656 16.546875 L 61.472656 18.554688"/><path fill="#3089FC" d="M 11.527344 18.554688 L 13.527344 18.554688 L 13.527344 16.546875 L 11.527344 16.546875 L 11.527344 18.554688"/><path fill="#3089FC" d="M 15.523438 18.554688 L 17.523438 18.554688 L 17.523438 16.546875 L 15.523438 16.546875 L 15.523438 18.554688"/><path fill="#3089FC" d="M 19.519531 18.554688 L 21.515625 18.554688 L 21.515625 16.546875 L 19.519531 16.546875 L 19.519531 18.554688"/><path fill="#3089FC" d="M 17.855469 44.683594 L 21.1875 44.683594 C 23.570312 44.683594 25.511719 42.882812 25.511719 40.664062 L 25.511719 38.65625 C 25.511719 36.4375 23.570312 34.636719 21.1875 34.636719 L 17.855469 34.636719 C 16.570312 34.636719 15.523438 33.730469 15.523438 32.625 L 15.523438 30.613281 C 15.523438 29.507812 16.570312 28.605469 17.855469 28.605469 L 21.1875 28.605469 C 22.46875 28.605469 23.515625 29.507812 23.515625 30.613281 L 23.515625 31.621094 L 25.511719 31.621094 L 25.511719 30.613281 C 25.511719 28.398438 23.570312 26.59375 21.1875 26.59375 L 17.855469 26.59375 C 15.46875 26.59375 13.527344 28.398438 13.527344 30.613281 L 13.527344 32.625 C 13.527344 34.84375 15.46875 36.644531 17.855469 36.644531 L 21.1875 36.644531 C 22.46875 36.644531 23.515625 37.546875 23.515625 38.65625 L 23.515625 40.664062 C 23.515625 41.773438 22.46875 42.675781 21.1875 42.675781 L 17.855469 42.675781 C 16.570312 42.675781 15.523438 41.773438 15.523438 40.664062 L 15.523438 39.660156 L 13.527344 39.660156 L 13.527344 40.664062 C 13.527344 42.882812 15.46875 44.683594 17.855469 44.683594"/><path fill="#3089FC" d="M 31.175781 44.683594 L 37.5 44.683594 L 37.5 42.675781 L 31.175781 42.675781 C 30.253906 42.675781 29.507812 41.773438 29.507812 40.664062 L 29.507812 36.644531 L 37.5 36.644531 L 37.5 34.636719 L 29.507812 34.636719 L 29.507812 30.613281 C 29.507812 29.507812 30.253906 28.605469 31.175781 28.605469 L 37.5 28.605469 L 37.5 26.59375 L 31.175781 26.59375 C 29.152344 26.59375 27.511719 28.398438 27.511719 30.613281 L 27.511719 40.664062 C 27.511719 42.882812 29.152344 44.683594 31.175781 44.683594"/><path fill="#3089FC" d="M 41.496094 30.613281 C 41.496094 29.507812 42.542969 28.605469 43.824219 28.605469 L 47.15625 28.605469 C 48.441406 28.605469 49.488281 29.507812 49.488281 30.613281 L 49.488281 40.664062 C 49.488281 41.773438 48.441406 42.675781 47.15625 42.675781 L 43.824219 42.675781 C 42.542969 42.675781 41.496094 41.773438 41.496094 40.664062 Z M 43.824219 44.683594 L 47.15625 44.683594 C 49.542969 44.683594 51.484375 42.882812 51.484375 40.664062 L 51.484375 30.613281 C 51.484375 28.398438 49.542969 26.59375 47.15625 26.59375 L 43.824219 26.59375 C 41.441406 26.59375 39.496094 28.398438 39.496094 30.613281 L 39.496094 40.664062 C 39.496094 42.882812 41.441406 44.683594 43.824219 44.683594"/></svg>