<svg xmlns="http://www.w3.org/2000/svg" width="75" viewBox="0 0 75 75" height="75" version="1.0"><defs><clipPath id="a"><path d="M 7.5 22 L 67.5 22 L 67.5 67.5 L 7.5 67.5 Z M 7.5 22"/></clipPath><clipPath id="b"><path d="M 17 23 L 20 23 L 20 67.5 L 17 67.5 Z M 17 23"/></clipPath><clipPath id="c"><path d="M 61 7.5 L 67.5 7.5 L 67.5 14 L 61 14 Z M 61 7.5"/></clipPath></defs><g clip-path="url(#a)"><path fill="#3089FC" d="M 63.515625 67.5 L 11.234375 67.5 C 10.738281 67.5 10.261719 67.40625 9.804688 67.214844 C 9.347656 67.027344 8.945312 66.757812 8.59375 66.40625 C 8.242188 66.054688 7.972656 65.652344 7.785156 65.195312 C 7.59375 64.738281 7.5 64.261719 7.5 63.765625 L 7.5 26.421875 C 7.5 25.925781 7.59375 25.449219 7.785156 24.992188 C 7.972656 24.535156 8.242188 24.128906 8.59375 23.78125 C 8.945312 23.429688 9.347656 23.160156 9.804688 22.972656 C 10.261719 22.78125 10.738281 22.6875 11.234375 22.6875 L 47.335938 22.6875 L 47.335938 25.175781 L 11.234375 25.175781 C 11.070312 25.175781 10.910156 25.207031 10.757812 25.269531 C 10.605469 25.335938 10.472656 25.425781 10.355469 25.539062 C 10.238281 25.65625 10.148438 25.792969 10.085938 25.945312 C 10.019531 26.097656 9.988281 26.257812 9.988281 26.421875 L 9.988281 63.765625 C 9.988281 63.929688 10.019531 64.089844 10.085938 64.242188 C 10.148438 64.394531 10.238281 64.527344 10.355469 64.644531 C 10.472656 64.761719 10.605469 64.851562 10.757812 64.914062 C 10.910156 64.980469 11.070312 65.011719 11.234375 65.011719 L 63.515625 65.011719 C 63.683594 65.011719 63.839844 64.980469 63.992188 64.914062 C 64.144531 64.851562 64.28125 64.761719 64.398438 64.644531 C 64.511719 64.527344 64.601562 64.394531 64.667969 64.242188 C 64.730469 64.089844 64.761719 63.929688 64.761719 63.765625 L 64.761719 26.421875 C 64.761719 26.257812 64.730469 26.097656 64.667969 25.945312 C 64.601562 25.792969 64.511719 25.65625 64.398438 25.539062 C 64.28125 25.425781 64.144531 25.335938 63.992188 25.269531 C 63.839844 25.207031 63.683594 25.175781 63.515625 25.175781 L 54.804688 25.175781 L 54.804688 22.6875 L 63.515625 22.6875 C 64.011719 22.6875 64.488281 22.78125 64.945312 22.972656 C 65.402344 23.160156 65.808594 23.429688 66.15625 23.78125 C 66.507812 24.128906 66.777344 24.535156 66.964844 24.992188 C 67.15625 25.449219 67.25 25.925781 67.25 26.421875 L 67.25 63.765625 C 67.25 64.261719 67.15625 64.738281 66.964844 65.195312 C 66.777344 65.652344 66.507812 66.054688 66.15625 66.40625 C 65.808594 66.757812 65.402344 67.027344 64.945312 67.214844 C 64.488281 67.40625 64.011719 67.5 63.515625 67.5 Z M 63.515625 67.5"/></g><g clip-path="url(#b)"><path fill="#3089FC" d="M 17.457031 23.929688 L 19.949219 23.929688 L 19.949219 67.5 L 17.457031 67.5 Z M 17.457031 23.929688"/></g><path fill="#3089FC" d="M 44.921875 34.921875 C 44.578125 34.921875 44.285156 34.800781 44.042969 34.558594 L 40.441406 30.957031 C 40.324219 30.839844 40.234375 30.707031 40.171875 30.554688 C 40.109375 30.402344 40.078125 30.242188 40.078125 30.078125 C 40.078125 29.910156 40.109375 29.753906 40.171875 29.601562 C 40.234375 29.449219 40.324219 29.3125 40.441406 29.195312 L 60.25 9.386719 C 60.367188 9.269531 60.503906 9.179688 60.65625 9.117188 C 60.808594 9.054688 60.964844 9.023438 61.132812 9.023438 C 61.296875 9.023438 61.457031 9.054688 61.609375 9.117188 C 61.761719 9.179688 61.894531 9.269531 62.011719 9.386719 L 65.613281 12.988281 C 65.730469 13.105469 65.820312 13.238281 65.882812 13.390625 C 65.945312 13.542969 65.976562 13.703125 65.976562 13.867188 C 65.976562 14.035156 65.945312 14.191406 65.882812 14.34375 C 65.820312 14.496094 65.730469 14.632812 65.613281 14.75 L 45.804688 34.558594 C 45.5625 34.800781 45.265625 34.921875 44.921875 34.921875 Z M 43.082031 30.078125 L 44.921875 31.917969 L 62.972656 13.867188 L 61.132812 12.027344 Z M 43.082031 30.078125"/><path fill="#3089FC" d="M 38.621094 37.625 C 38.410156 37.625 38.214844 37.574219 38.03125 37.476562 C 37.847656 37.375 37.695312 37.238281 37.582031 37.066406 C 37.464844 36.890625 37.398438 36.699219 37.378906 36.488281 C 37.363281 36.28125 37.394531 36.082031 37.476562 35.890625 L 40.175781 29.585938 L 42.464844 30.566406 L 40.984375 34.015625 L 44.429688 32.539062 L 45.410156 34.828125 L 39.105469 37.527344 C 38.949219 37.59375 38.789062 37.625 38.621094 37.625 Z M 38.621094 37.625"/><path fill="#3089FC" d="M 47.644531 23.75 L 49.40625 21.992188 L 53.007812 25.59375 L 51.246094 27.355469 Z M 47.644531 23.75"/><g clip-path="url(#c)"><path fill="#3089FC" d="M 64.710938 13.847656 L 62.953125 12.089844 L 64.753906 10.289062 L 62.910156 12.046875 L 61.152344 10.289062 L 62.953125 8.488281 C 63.1875 8.25 63.460938 8.070312 63.769531 7.941406 C 64.078125 7.8125 64.398438 7.75 64.734375 7.75 C 65.066406 7.75 65.386719 7.8125 65.695312 7.941406 C 66.003906 8.070312 66.277344 8.25 66.511719 8.488281 C 66.75 8.722656 66.929688 8.996094 67.058594 9.304688 C 67.1875 9.613281 67.25 9.933594 67.25 10.265625 C 67.25 10.601562 67.1875 10.921875 67.058594 11.230469 C 66.929688 11.539062 66.75 11.8125 66.511719 12.046875 Z M 64.710938 13.847656"/></g><path fill="#3089FC" d="M 12.480469 27.664062 L 14.96875 27.664062 L 14.96875 35.136719 L 12.480469 35.136719 Z M 12.480469 27.664062"/><path fill="#3089FC" d="M 12.480469 55.050781 L 14.96875 55.050781 L 14.96875 62.519531 L 12.480469 62.519531 Z M 12.480469 55.050781"/><path fill="#3089FC" d="M 42.71875 48.464844 L 31.152344 36.894531 L 19.582031 48.464844 L 17.824219 46.703125 L 30.269531 34.253906 C 30.386719 34.136719 30.523438 34.046875 30.675781 33.984375 C 30.828125 33.921875 30.988281 33.890625 31.152344 33.890625 C 31.316406 33.890625 31.476562 33.921875 31.628906 33.984375 C 31.78125 34.046875 31.914062 34.136719 32.03125 34.253906 L 44.480469 46.703125 Z M 42.71875 48.464844"/><path fill="#3089FC" d="M 66.007812 48.828125 L 59.78125 48.828125 C 59.4375 48.828125 59.144531 48.707031 58.902344 48.464844 L 49.203125 38.761719 L 41.988281 45.972656 L 40.230469 44.214844 L 48.320312 36.121094 C 48.4375 36.003906 48.574219 35.914062 48.726562 35.851562 C 48.878906 35.789062 49.035156 35.757812 49.203125 35.757812 C 49.367188 35.757812 49.523438 35.789062 49.675781 35.851562 C 49.828125 35.914062 49.964844 36.003906 50.082031 36.121094 L 60.296875 46.339844 L 66.007812 46.339844 Z M 66.007812 48.828125"/><path fill="#3089FC" d="M 18.703125 51.316406 L 66.007812 51.316406 L 66.007812 53.808594 L 18.703125 53.808594 Z M 18.703125 51.316406"/><path fill="#3089FC" d="M 57.292969 37.625 C 56.964844 37.625 56.640625 37.59375 56.320312 37.527344 C 56 37.464844 55.6875 37.371094 55.386719 37.246094 C 55.085938 37.121094 54.796875 36.96875 54.527344 36.785156 C 54.253906 36.605469 54.003906 36.398438 53.773438 36.167969 C 53.539062 35.933594 53.335938 35.683594 53.152344 35.410156 C 52.972656 35.140625 52.816406 34.851562 52.691406 34.550781 C 52.566406 34.25 52.472656 33.9375 52.410156 33.617188 C 52.34375 33.296875 52.3125 32.972656 52.3125 32.644531 C 52.3125 32.316406 52.34375 31.996094 52.410156 31.671875 C 52.472656 31.351562 52.566406 31.042969 52.691406 30.738281 C 52.816406 30.4375 52.972656 30.152344 53.152344 29.878906 C 53.335938 29.605469 53.539062 29.355469 53.773438 29.125 C 54.003906 28.894531 54.253906 28.6875 54.527344 28.503906 C 54.796875 28.324219 55.085938 28.171875 55.386719 28.046875 C 55.6875 27.917969 56 27.824219 56.320312 27.761719 C 56.640625 27.699219 56.964844 27.664062 57.292969 27.664062 C 57.621094 27.664062 57.941406 27.699219 58.265625 27.761719 C 58.585938 27.824219 58.894531 27.917969 59.199219 28.046875 C 59.5 28.171875 59.785156 28.324219 60.058594 28.503906 C 60.332031 28.6875 60.582031 28.894531 60.8125 29.125 C 61.042969 29.355469 61.25 29.605469 61.433594 29.878906 C 61.613281 30.152344 61.769531 30.4375 61.894531 30.738281 C 62.019531 31.042969 62.113281 31.351562 62.175781 31.671875 C 62.238281 31.996094 62.273438 32.316406 62.273438 32.644531 C 62.273438 32.972656 62.238281 33.296875 62.175781 33.617188 C 62.113281 33.9375 62.019531 34.25 61.894531 34.550781 C 61.769531 34.851562 61.613281 35.140625 61.433594 35.410156 C 61.25 35.683594 61.042969 35.933594 60.8125 36.167969 C 60.582031 36.398438 60.332031 36.605469 60.058594 36.785156 C 59.785156 36.96875 59.5 37.121094 59.199219 37.246094 C 58.894531 37.371094 58.585938 37.464844 58.265625 37.527344 C 57.941406 37.59375 57.621094 37.625 57.292969 37.625 Z M 57.292969 30.15625 C 56.960938 30.15625 56.644531 30.21875 56.339844 30.34375 C 56.035156 30.472656 55.765625 30.652344 55.53125 30.886719 C 55.296875 31.117188 55.117188 31.386719 54.992188 31.691406 C 54.867188 31.996094 54.804688 32.316406 54.804688 32.644531 C 54.804688 32.976562 54.867188 33.292969 54.992188 33.597656 C 55.117188 33.902344 55.296875 34.171875 55.53125 34.40625 C 55.765625 34.640625 56.035156 34.820312 56.339844 34.945312 C 56.644531 35.070312 56.960938 35.136719 57.292969 35.136719 C 57.621094 35.136719 57.941406 35.070312 58.246094 34.945312 C 58.550781 34.820312 58.820312 34.640625 59.054688 34.40625 C 59.285156 34.171875 59.464844 33.902344 59.59375 33.597656 C 59.71875 33.292969 59.78125 32.976562 59.78125 32.644531 C 59.78125 32.316406 59.71875 31.996094 59.59375 31.691406 C 59.464844 31.386719 59.285156 31.117188 59.054688 30.886719 C 58.820312 30.652344 58.550781 30.472656 58.246094 30.34375 C 57.941406 30.21875 57.621094 30.15625 57.292969 30.15625 Z M 57.292969 30.15625"/><path fill="#3089FC" d="M 22.4375 56.296875 L 29.90625 56.296875 L 29.90625 58.785156 L 22.4375 58.785156 Z M 22.4375 56.296875"/><path fill="#3089FC" d="M 54.804688 56.296875 L 62.273438 56.296875 L 62.273438 58.785156 L 54.804688 58.785156 Z M 54.804688 56.296875"/><path fill="#3089FC" d="M 36.128906 60.03125 L 43.597656 60.03125 L 43.597656 62.519531 L 36.128906 62.519531 Z M 36.128906 60.03125"/><path fill="#3089FC" d="M 46.089844 60.03125 L 48.578125 60.03125 L 48.578125 62.519531 L 46.089844 62.519531 Z M 46.089844 60.03125"/></svg>